<svg data-v-fde0c5aa="" xmlns="http://www.w3.org/2000/svg" viewBox="0 0 300 300" class="iconLeft"><!----><defs data-v-fde0c5aa=""><!----></defs><rect data-v-fde0c5aa="" fill="#3D1240" x="0" y="0" width="300px" height="300px" class="logo-background-square"></rect><defs data-v-fde0c5aa=""><!----></defs><g data-v-fde0c5aa="" id="61aab712-10d5-403f-9191-e3261e7139fc" fill="#DDBA2E" transform="matrix(2.8247817064440484,0,0,2.8247817064440484,95.31522614389775,121.7521842825204)"><path d="M4.62 15.22C7.17 15.22 8.53 13.54 8.53 10.15C8.53 6.76 7.17 5.08 4.62 5.08C2.07 5.08 0.71 6.76 0.71 10.15C0.71 13.54 2.07 15.22 4.62 15.22ZM4.62 14.60C3.22 14.60 2.55 13.26 2.55 10.15C2.55 7.04 3.22 5.70 4.62 5.70C6.05 5.70 6.71 7.04 6.71 10.15C6.71 13.26 6.05 14.60 4.62 14.60ZM11.82 15.16C12.45 15.16 12.99 14.78 12.99 14.25C12.99 14.10 12.95 13.89 12.81 13.72C12.73 13.87 12.52 13.93 12.36 13.93C12.04 13.93 11.86 13.68 11.86 13.19L11.86 7.87C11.86 6.61 11.90 5.89 12.11 5.14C11.97 5.01 11.65 4.77 11.17 4.77C10.64 4.77 10.23 5.08 10.23 5.64L10.23 13.33C10.23 14.46 10.79 15.16 11.82 15.16ZM20.83 13.72C20.73 13.87 20.54 13.93 20.43 13.93C20.10 13.93 19.95 13.69 19.95 13.19L19.95 10.67C19.95 8.53 19.03 7.64 17.00 7.64C15.23 7.64 14.10 8.23 14.10 9.35C14.10 10.05 14.59 10.63 15.40 10.63C15.74 10.63 16.10 10.53 16.30 10.32C15.89 10.11 15.76 9.67 15.76 9.30C15.76 8.50 16.30 8.22 16.88 8.22C17.92 8.22 18.27 9.02 18.27 10.57L18.27 10.92C17.68 10.92 16.94 10.98 16.18 11.19C14.95 11.54 13.78 12.25 13.78 13.52C13.78 14.57 14.52 15.16 15.58 15.16C16.87 15.16 17.85 14.36 18.37 13.22C18.42 14.64 18.93 15.16 19.80 15.16C20.52 15.16 21 14.76 21 14.25C21 14.10 20.96 13.89 20.83 13.72ZM16.42 14.08C15.81 14.14 15.57 13.65 15.57 13.13C15.57 12.52 15.96 12.04 16.53 11.77C17.02 11.54 17.74 11.47 18.31 11.48C18.31 12.89 17.26 14.03 16.42 14.08ZM23.20 15.22C23.73 15.22 24.15 14.78 24.15 14.25C24.15 13.71 23.73 13.27 23.20 13.27C22.65 13.27 22.22 13.71 22.22 14.25C22.22 14.78 22.65 15.22 23.20 15.22ZM33.75 13.13L33.75 5.96C33.75 5.43 33.33 5.11 32.80 5.11C32.33 5.11 31.99 5.33 31.85 5.47C32.05 6.02 32.09 6.64 32.09 7.18L32.09 9.46L28.17 9.46L28.17 5.96C28.17 5.43 27.75 5.11 27.20 5.11C26.74 5.11 26.40 5.33 26.25 5.47C26.46 6.02 26.50 6.64 26.50 7.18L26.50 14.35C26.50 14.88 26.91 15.22 27.45 15.22C27.92 15.22 28.27 14.98 28.41 14.84C28.20 14.29 28.17 13.68 28.17 13.13L28.17 10.37L32.09 10.37L32.09 14.35C32.09 14.88 32.49 15.22 33.04 15.22C33.50 15.22 33.85 14.98 33.99 14.84C33.78 14.29 33.75 13.68 33.75 13.13ZM42.10 13.13L42.10 10.49C42.10 8.60 41.38 7.64 39.84 7.64C38.67 7.64 37.87 8.25 37.49 9.32C37.49 8.19 36.99 7.64 36.18 7.64C35.52 7.64 35.14 8.01 35.14 8.51C35.14 8.71 35.20 8.88 35.31 9.06C35.41 8.90 35.57 8.88 35.69 8.88C35.92 8.88 36.04 9.07 36.05 9.60L36.05 14.27C36.05 14.85 36.46 15.22 37.02 15.22C37.46 15.22 37.80 14.99 37.95 14.85C37.67 14.18 37.67 13.68 37.67 11.70C37.67 9.48 38.43 8.48 39.31 8.48C40.22 8.48 40.46 9.30 40.47 10.72L40.47 14.35C40.47 14.88 40.88 15.22 41.41 15.22C41.82 15.22 42.13 15.05 42.36 14.84C42.14 14.29 42.11 13.58 42.10 13.13ZM50.75 13.73C50.65 13.89 50.48 13.92 50.37 13.92C50.08 13.92 49.91 13.69 49.91 13.19L49.92 5.64C49.92 5.08 49.50 4.77 48.99 4.77C48.51 4.77 48.19 5.01 48.03 5.14C48.27 5.94 48.31 6.86 48.31 7.53L48.31 8.57C48.05 7.98 47.43 7.64 46.54 7.64C44.63 7.64 43.57 9.13 43.57 11.70C43.57 13.59 44.18 15.22 46.02 15.22C47.19 15.22 47.99 14.55 48.41 13.31C48.50 14.45 48.93 15.15 49.80 15.15C50.43 15.15 50.92 14.78 50.92 14.28C50.92 14.13 50.86 13.92 50.75 13.73ZM46.51 14.29C45.54 14.29 45.32 13.26 45.32 11.68C45.32 9.63 45.79 8.48 46.91 8.48C48.08 8.48 48.29 9.53 48.29 10.58C48.29 12.49 47.71 14.29 46.51 14.29ZM57.75 13.38C57.72 13.57 57.53 13.76 57.36 13.76C57.16 13.76 56.94 13.59 56.76 13.27L55.59 11.30L56.71 9.77C57.06 9.27 57.44 8.83 58.10 8.64C58.02 7.94 57.71 7.64 57.15 7.64C56.69 7.64 56.45 7.87 56.29 8.15L55.03 10.26L54.45 9.17C53.87 8.08 53.59 7.64 52.78 7.64C51.87 7.64 51.46 8.19 51.46 8.71C51.46 9.10 51.70 9.37 52.00 9.49C52.04 9.28 52.21 9.10 52.43 9.10C52.63 9.10 52.79 9.25 52.99 9.60L54.07 11.44L52.91 13.12C52.54 13.66 52.15 14.06 51.52 14.22C51.59 14.97 52.00 15.22 52.44 15.22C52.86 15.22 53.12 14.99 53.26 14.73L54.63 12.45L55.31 13.69C55.82 14.66 56.18 15.23 57.01 15.23C57.83 15.23 58.30 14.69 58.30 14.17C58.30 13.76 58.03 13.50 57.75 13.38Z"></path></g><defs data-v-fde0c5aa=""><!----></defs><g data-v-fde0c5aa="" id="c003374b-1f56-4f30-a5ed-737380f8127c" stroke="none" fill="#DDBA2E" transform="matrix(1.3850256592143682,0,0,1.3850256592143682,40,127.83958945257011)"><path d="M16 32c8.837 0 16-7.163 16-16S24.837 0 16 0 0 7.163 0 16s7.163 16 16 16zM14.817 6.421h2v8.886h8.887v2H14.817V6.421zm-5.959.437h2v14.283h14.283v2H8.858V6.858z"></path></g><!----></svg>